# xmcd
#
# Track frame offsets: 
#        150
#        19520
#        41487
#        65900
#        84367
#        107547
#        130725
#        135605
#        161602
#
# Disc length: 2476 seconds
#
# Revision: 3
# Processed by: cddbd v1.5.2PL0 Copyright (c) Steve Scherf et al.
# Submitted via: ExactAudioCopy v0.99pb4
#
DISCID=6d09aa09
DTITLE=NIGHT HAWKS - NIGHT HAWKS II
DYEAR=1990
DGENRE=Hard Rock
TTITLE0=Stay Alive
TTITLE1=I Can't Find
TTITLE2=On My Way
TTITLE3=Lady
TTITLE4=Don't Tell Me Now
TTITLE5=Sacrifice
TTITLE6=Time
TTITLE7=Outsider
TTITLE8=Rock'n Roll Over Night
EXTD=YEAR: 1990
EXTT0=
EXTT1=
EXTT2=
EXTT3=
EXTT4=
EXTT5=
EXTT6=
EXTT7=
EXTT8=
PLAYORDER=
